PathFileType	4	(X/Y/Z)	5_1_3_p0_0-229.trc
DataRate	CameraRate	NumFrames	NumMarkers	Units	OrigDataRate	OrigDataStartFrame	OrigNumFrames
60.0	60.0	5	27	m	60.0	115	230
Frame#	Time	RHip			RKnee			RAnkle			RBigToe			RSmallToe			RHeel			LHip			LKnee			LAnkle			LBigToe			LSmallToe			LHeel			Neck			Head			Nose			RShoulder			RElbow			RWrist			RThumb			RIndex			RPinky			LShoulder			LElbow			LWrist			LThumb			LIndex			LPinky			
		X1	Y1	Z1	X2	Y2	Z2	X3	Y3	Z3	X4	Y4	Z4	X5	Y5	Z5	X6	Y6	Z6	X7	Y7	Z7	X8	Y8	Z8	X9	Y9	Z9	X10	Y10	Z10	X11	Y11	Z11	X12	Y12	Z12	X13	Y13	Z13	X14	Y14	Z14	X15	Y15	Z15	X16	Y16	Z16	X17	Y17	Z17	X18	Y18	Z18	X19	Y19	Z19	X20	Y20	Z20	X21	Y21	Z21	X22	Y22	Z22	X23	Y23	Z23	X24	Y24	Z24	X25	Y25	Z25	X26	Y26	Z26	X27	Y27	Z27	
115	1.9166666666666667	0.2759826456371713	0.5223834984962651	0.7921561456017364	0.3106620412247469	0.6149301259661857	1.2345511517814916	0.35668172207889043	0.7798418338288776	1.684333141928751	0.366437121887686	0.5308981753165717	1.6616149273799612	0.4133046487542002	0.6080126602593704	1.6754776527284942	0.35697066051762055	0.8406083537947369	1.7366210038283083	0.12110675101389103	0.49019831991037227	0.7586432178994255	0.15273784949854935	0.5969919555460019	1.2525259798975859	0.19739395286766942	0.7106999422386824	1.6666963401760364	0.21382196044117951	0.5538193832932115	1.6931484266286358	0.1600195037230657	0.5915134811302293	1.6941380562464345	0.2038758317147686	0.8256047771777738	1.7323748699431254	0.36926006342706935	0.4226239526465966	0.39916884550833986	0.6217942969747103	0.3998213614731633	0.27613408348334784	0.48179272547188184	0.3520869438283313	0.3821361840685705	0.4532794504777976	0.4970538751621429	0.491642657921352	0.4320577007239791	0.5328803048449423	0.7511392747816688	0.38952406609690143	0.5408454992291574	1.0081144649075027	0.3260858007429939	0.4791387932305971	1.102559304166548	0.3353517228433554	0.4677863830887954	1.1397802564940576	0.34848120975852337	0.5007675238943343	1.1365454544885067	0.2238157196862579	0.446345444898813	0.3297943835439678	0.06414063374320852	0.4460117789614044	0.5591083731052838	0.06797649859612094	0.40641945229447085	0.7846188628984713	0.11016938792192216	0.4265770274581819	0.8743178580426646	0.09286867132580509	0.43656016251483515	0.9155007426651038	0.0407254950901671	0.4890541226060463	0.9131536398879505
116	1.9333333333333333	0.26921177440002214	0.5350953103728314	0.7942139624510303	0.30483972731260034	0.6296779506040648	1.2390105021068318	0.35771117411528136	0.7827398158560206	1.6893007172384087	0.3665080515835449	0.5298139635523667	1.66131911204133	0.41335045817759053	0.6073441832072491	1.6753436744789474	0.35698592397487355	0.840721356771587	1.7366938802660103	0.11520931911517526	0.502857125730743	0.7605446798397566	0.1517975716922571	0.597969538177592	1.2485558368133216	0.19660149077161265	0.7122641825076385	1.6634047235337834	0.20745193820986305	0.56868083611852	1.7002198093275283	0.15997008895163076	0.5920065346298843	1.6942419789277998	0.20850192635382156	0.8334739915266253	1.7352824515381922	0.37479822995198103	0.40950687308293343	0.3984891422456133	0.6286825805260672	0.3948790380522561	0.2720834397603839	0.4832807133774723	0.35776146303346523	0.3832511412733531	0.45892729435550483	0.48283030469157096	0.49433402552184036	0.42294729602215797	0.5460796773426294	0.7616129557160743	0.382442347177775	0.5414535738105418	1.0133464467802313	0.3258401004065748	0.4797995723783138	1.1102620930681768	0.33382861393432073	0.47112072478659783	1.1481162961275162	0.34177059678341737	0.512481566574624	1.1475256193631533	0.2237426810234156	0.4436605262095055	0.32624640698931373	0.06501439209768188	0.4581930707820529	0.5591282606505082	0.0666797531127657	0.4052743846891947	0.7770039273092872	0.1097238244668125	0.42615149192294677	0.874256149977058	0.0876395667580143	0.42281397327005404	0.9144509779899022	0.03660621503429895	0.4836393048655544	0.9087076146920495
117	1.95	0.27530239744655344	0.5202065888672244	0.7880263007299896	0.31060279938798113	0.6150156617663857	1.2342238071195535	0.3576836028930505	0.7826372073369712	1.6892666174762145	0.36686492980497193	0.5310336938178195	1.6619061104267012	0.413781321530335	0.6083295795860179	1.675795706135913	0.3567863215323127	0.839854637819377	1.736102013646008	0.12112314270522107	0.49015653164594347	0.7583016902736028	0.15178741070876614	0.597221658082671	1.2478964791873393	0.190113926876332	0.7274178243422955	1.670229210990902	0.20648914554639927	0.5705804603719594	1.6968316504854342	0.15988327182160697	0.5922356435696013	1.6941918898109358	0.20371881214886728	0.825840323797678	1.7329578062366948	0.3781652439472006	0.41266618401760663	0.4018742277718157	0.6307570102352277	0.38766067867942394	0.2764397045427132	0.4961031577073836	0.3716333373847209	0.38043024882939247	0.4590650496598328	0.4831259684671677	0.49420180779577183	0.42645104899601394	0.5490429586086556	0.7576455487290998	0.38151192502401254	0.5431669876947113	1.009711733782346	0.3257595397200304	0.47985363498692807	1.1103445091046942	0.32872201923558914	0.4840080282845591	1.152012022299056	0.3378566510879396	0.5149067449200332	1.1492646808301676	0.22388260094920204	0.44347311254345095	0.3262426793076476	0.06461156948318511	0.4577609494004318	0.551670135629664	0.06670118740052515	0.40543179321966855	0.7770245930496176	0.10963257276382202	0.4260905987531113	0.8743140368688805	0.0871563173126343	0.4233337876087722	0.91527523388439	0.036531705593879076	0.483495296171601	0.9088597174361457
118	1.9666666666666666	0.27516020326461815	0.5199089202199026	0.7879779092577496	0.30475953229164787	0.6292923128265999	1.2386989261898171	0.3564118554869326	0.7794257113090809	1.6839776197178058	0.36867394176158513	0.54134186463136	1.6660856468371399	0.4134770731714606	0.6066840713630944	1.6752333329124969	0.3523205090809582	0.8369714279433479	1.7356628689220692	0.11556579230520435	0.5015567541379012	0.7570673891324569	0.14558935352912367	0.6071712287692048	1.2431740145501688	0.18596742977046654	0.7248402992056675	1.6698814435138414	0.20743136622652675	0.5691341205025638	1.7004810931002206	0.16085104185027288	0.5949081051002642	1.699008579351395	0.20369735391959795	0.8252976675088539	1.7328951830594805	0.37621932047159434	0.40405101859282766	0.4066432530096074	0.627470591795275	0.3767632956765473	0.28054273331778007	0.4975173383650659	0.3661821066704371	0.37589217270548664	0.4648167354603127	0.47075487801869176	0.4971214100252916	0.4200442051435705	0.5334604885989851	0.7605872781110994	0.37734608179229306	0.5405241990957639	1.009695007770333	0.3229435817890166	0.4677564455842028	1.103776794516654	0.32852231045686237	0.48364069789361236	1.1516685609810478	0.33910426436085855	0.5118169301207383	1.1490557396419199	0.23327629163397978	0.43495447324472714	0.3258364648874835	0.07593501757923372	0.44605169477081996	0.5509767932303258	0.05993066404780724	0.41819205497893414	0.77916744748912	0.10956087857229585	0.4262148561152079	0.8743507810333351	0.08019839320266596	0.43620760663206165	0.9189991298755835	0.02965531569503721	0.4969039696879922	0.9072135763577586
119	1.9833333333333334	0.27587358599201994	0.5188833684214412	0.7918361000157058	0.30551610322269246	0.6280465733305037	1.234487628791443	0.35752723730663144	0.7823933659952887	1.6891318456884004	0.36681122563411644	0.5293717497279129	1.6612763464742173	0.4138428274384547	0.6073600730629296	1.6754971901297553	0.35241653385402444	0.8370446022500325	1.7358066423275025	0.12122238998216558	0.48670959855748525	0.7504359180429395	0.14504087921963243	0.5954095368674144	1.2443571596512077	0.1868936891370099	0.7236396510298535	1.6653538398461643	0.20740634480990405	0.5691468185150854	1.7004271609483745	0.16083638140166776	0.5951698394064747	1.6989781170023064	0.20362599725202224	0.8255506554308587	1.7330360341970832	0.37709035141250746	0.40551477830504906	0.4101600719227814	0.6290021636623793	0.37813741483544605	0.28375886225650365	0.4970110834427315	0.36186665786900324	0.37913661579116104	0.46479219437647046	0.47134648146316366	0.5014677483252825	0.4153473514557726	0.5501127302924345	0.7670561794706031	0.377851113008321	0.5397249210672017	1.0135324625193565	0.32285602229040744	0.46773124959769724	1.1040620841311986	0.32845450497782874	0.4838305024189217	1.152144197962146	0.3389557824401872	0.5120273481234898	1.1494947070450012	0.23485510356137743	0.44472321781192664	0.32163426197385603	0.07592335963326098	0.4586266466718082	0.5465932672636268	0.053198940707349936	0.4314375184062809	0.7813603747419328	0.10901144131370066	0.42756799511694515	0.8709365005895979	0.0837370247088754	0.4381911926112321	0.9143077104998788	0.029657309897009654	0.4972079340174139	0.9069364675316601
